<svg version="1" xmlns="http://www.w3.org/2000/svg" width="1200" height="1200" viewBox="0 0 900.000000 900.000000"><path d="M645 .7c-40.1 3.9-65.2 11-96 26.9-45.5 23.7-81 60.2-104 106.9-12 24.2-19.4 48.8-23.1 76.5-1.9 14-1.6 46.9.5 61.5 5.6 39.4 20.4 76.5 42.9 107.4 3.3 4.7 5.6 8.6 5 8.8-.6.2-3.2 1.8-5.7 3.4-6.6 4.4-10.8 11.3-13.1 21.3-.5 2.6-.9 2.8-4 2.3-2.8-.5-5.3.6-16.2 6.8-15.2 8.6-2-4.4-148.8 147-29.5 30.4-43.8 45.2-88.5 91-10.7 11-33.9 34.8-51.5 53-75 77.4-104.1 107-105 107.3-.6.1-4-2.1-7.5-5.1-18-14.7-19.7-15.3-26.1-8.8-2.5 2.5-3.9 4.8-3.9 6.4C0 823.8 76.1 900 86.6 900c1.3 0 4-1.6 6.4-3.8 6.6-6.4 5.9-8.7-8.7-26-5.6-6.7-6-7.6-4-9.5 4.4-4.4 79.1-76.8 91.7-89.1 8.5-8.3 23.4-22.8 33-32.1 9.6-9.4 34.4-33.5 55-53.6 20.6-20 53-51.5 72-69.9 84.9-82.3 103.7-100.6 121.5-118.5 18-18 19.3-19.6 25-30 4.7-8.6 5.9-11.8 5.7-14.6-.3-3.5-.3-3.6 5.5-5.2 7.6-2.1 14.5-6.8 18.2-12.3 1.6-2.5 3.2-5.1 3.4-5.7.2-.7 3.4 1.1 7.3 4 31.4 23.1 68 37.9 108.9 43.9 14.5 2.2 47.2 2.4 61.5.5 53.6-7.2 102-30.6 139.2-67.5 36.1-35.6 59.3-80.4 68.2-131.2 8.4-47.7.7-99.8-21.4-144.9-27.4-56-77.6-100.6-136-120.8-29.6-10.2-68.1-15.6-94-13zm43.2 29.8c95 14.8 167 89.1 178.8 184.5 1.5 12.3 1.2 39.1-.5 52.5-9.2 69.8-53.5 131.2-117 162-19.8 9.6-37.3 15.2-60 19.2-14.3 2.4-50 2.5-64.6 0-44.8-7.5-82.8-26.4-114.5-56.9-45-43.4-68-102.4-64.3-165.2 1.8-29.8 8.8-55.7 22.5-82.6 33.6-66.3 98-109.2 172.9-115.4 9.5-.8 36.4.3 46.7 1.9zM489.6 410c4.9 5 7.9 8.8 7.8 10-.2 2.8-4.3 8.5-7.5 10.4-5.7 3.3-16.2 1.1-19.7-4.2-4.1-6.3-3.2-14.6 2.3-19.5 1.9-1.7 7.2-4.6 8.6-4.7.4 0 4.2 3.6 8.5 8z"/><path d="M634.5 150.6c-22.2 2.6-34.1 4.8-51 9.5-31.2 8.8-63.9 25.7-87 45.1-15.8 13.2-35.4 35-34.2 38.1 2.1 5.6 25.9 30.3 38.3 39.9 33.7 25.9 71.7 41.7 119.1 49.4 15.1 2.4 53.5 3 70.6 1 58.1-6.7 110-30.2 146.1-66 7.7-7.6 21.6-23.8 21.6-25.1 0-1.4-14-17.6-22-25.5-36.8-36.4-90.2-60.2-147.9-66-9.4-.9-46.4-1.2-53.6-.4zm26.8 5.1c-.7.2-1.9.2-2.5 0-.7-.3-.2-.5 1.2-.5s1.9.2 1.3.5zm-21 1c-.7.2-1.9.2-2.5 0-.7-.3-.2-.5 1.2-.5s1.9.2 1.3.5zm42 0c-.7.2-1.9.2-2.5 0-.7-.3-.2-.5 1.2-.5s1.9.2 1.3.5zm-51 1c-.7.2-1.9.2-2.5 0-.7-.3-.2-.5 1.2-.5s1.9.2 1.3.5zm-3.3 18.8c3.3 10.2 5.9 18.9 5.6 19.4-.3.4-7.2-1.4-15.3-4.1-8.1-2.7-18.1-6-22.1-7.3l-7.3-2.3-1.5 3.6c-5.5 12.8-7.7 27.8-6.3 41.7 2.8 27.3 20.7 51.9 46.3 63.5 42.7 19.4 93.6-3.5 107.9-48.5 8.3-26.2 2.1-55.7-16.2-76.6l-4.5-5.2 3.7.7c7.1 1.3 24.2 6.6 34.3 10.5 27.5 10.7 51.3 25.6 71.5 44.9 9.5 9 21.9 23.5 21.9 25.6 0 3.4-17.8 22.9-31.5 34.4-32.1 27-73.2 44.3-122 51.4-13.8 2-55.2 1.7-69-.5-52.9-8.4-94.1-27.5-128.2-59.4-6.4-6.1-15.9-16.7-19.7-22.1l-2.9-4.2 3.9-4.7c9.1-11.4 15.5-18.1 25.1-26.4 28.8-24.8 63.9-42 103.3-50.3 18.3-3.9 15.9-5.6 23 15.9zm83.7-15.9c-.3.3-1.2.4-1.9.1-.8-.3-.5-.6.6-.6 1.1-.1 1.7.2 1.3.5z"/></svg>